# xmcd CD database file
#
# Track frame offsets:
#	150
#	16237
#	31452
#	51485
#	64275
#	76717
#	97277
#	112922
#
# Disc length: 1687 seconds
#
# Revision: 0
# Processed by: cddbd v1.5.1PL2 Copyright (c) Steve Scherf et al.
# Submitted via: CDex 1.51
#
DISCID=64069508
DTITLE=Blue Creek - High Maintenance
DYEAR=2000
DGENRE=Country
TTITLE0=Someone Other
TTITLE1=High Maintenance
TTITLE2=Unchained Melody
TTITLE3=When I'm With You
TTITLE4=The Truth is in the Question
TTITLE5=I Watched Her Walk
TTITLE6=Don't Go Away Mad
TTITLE7=Dreams Come True
EXTD=YEAR: 2000
EXTT0=
EXTT1=
EXTT2=
EXTT3=
EXTT4=
EXTT5=
EXTT6=
EXTT7=
PLAYORDER=
